<?xml version="1.0" standalone="no"?>
<!DOCTYPE svg PUBLIC "-//W3C//DTD SVG 20010904//EN"
 "http://www.w3.org/TR/2001/REC-SVG-20010904/DTD/svg10.dtd">
<svg version="1.0" xmlns="http://www.w3.org/2000/svg"
 width="59.000000pt" height="52.000000pt" viewBox="0 0 59.000000 52.000000"
 preserveAspectRatio="xMidYMid meet">

<g transform="translate(0.000000,52.000000) scale(0.100000,-0.100000)"
fill="#000000" stroke="none">
<path d="M119 510 c-43 -13 -76 -39 -93 -75 -21 -43 -21 -95 -1 -95 10 0 15
10 15 32 0 65 76 124 144 111 14 -3 45 -23 70 -44 l43 -38 24 25 c34 37 72 54
120 54 33 0 47 -6 75 -34 27 -27 34 -42 34 -74 0 -66 -5 -72 -68 -72 -42 0
-61 5 -77 20 l-21 20 -44 -45 -44 -45 -63 62 -63 62 -37 -36 c-29 -28 -48 -38
-78 -40 l-40 -3 140 -143 139 -142 103 102 c74 73 99 104 87 106 -10 3 -49
-28 -100 -79 l-84 -84 -102 102 -102 103 34 35 34 35 61 -60 c33 -33 65 -60
70 -60 5 0 29 19 52 42 33 33 46 39 55 30 7 -7 41 -12 83 -12 67 0 73 2 83 25
7 14 12 47 12 73 0 79 -43 128 -127 146 -35 8 -108 -18 -132 -47 -19 -23 -34
-21 -61 8 -13 14 -40 29 -59 35 -41 11 -46 11 -82 0z"/>
</g>
</svg>
