<svg width="28" height="28" viewBox="0 0 28 28" fill="none" xmlns="http://www.w3.org/2000/svg">
<path d="M9.8849 12.91C9.75992 13.0339 9.66073 13.1814 9.59304 13.3439C9.52535 13.5063 9.4905 13.6806 9.4905 13.8566C9.4905 14.0326 9.52535 14.2069 9.59304 14.3694C9.66073 14.5319 9.75992 14.6793 9.8849 14.8033C10.1347 15.0516 10.4726 15.191 10.8249 15.191C11.1771 15.191 11.5151 15.0516 11.7649 14.8033C11.8899 14.6793 11.9891 14.5319 12.0568 14.3694C12.1244 14.2069 12.1593 14.0326 12.1593 13.8566C12.1593 13.6806 12.1244 13.5063 12.0568 13.3439C11.9891 13.1814 11.8899 13.0339 11.7649 12.91C11.5151 12.6616 11.1771 12.5222 10.8249 12.5222C10.4726 12.5222 10.1347 12.6616 9.8849 12.91ZM13.1782 16.2166C12.9299 16.4664 12.7905 16.8044 12.7905 17.1566C12.7905 17.5089 12.9299 17.8468 13.1782 18.0966C13.3022 18.2216 13.4496 18.3208 13.6121 18.3885C13.7746 18.4562 13.9489 18.491 14.1249 18.491C14.3009 18.491 14.4752 18.4562 14.6377 18.3885C14.8001 18.3208 14.9476 18.2216 15.0716 18.0966C15.3199 17.8468 15.4593 17.5089 15.4593 17.1566C15.4593 16.8044 15.3199 16.4664 15.0716 16.2166C14.9476 16.0917 14.8001 15.9925 14.6377 15.9248C14.4752 15.8571 14.3009 15.8222 14.1249 15.8222C13.9489 15.8222 13.7746 15.8571 13.6121 15.9248C13.4496 15.9925 13.3022 16.0917 13.1782 16.2166ZM25.1782 2.8833C23.7278 1.42093 21.7693 0.574304 19.7104 0.519664C17.6515 0.465025 15.6508 1.20658 14.1249 2.58996C12.606 1.22274 10.6215 0.488605 8.57853 0.538192C6.53554 0.587779 4.58898 1.41733 3.13823 2.85663C1.69692 4.30975 0.867362 6.26002 0.820238 8.30616C0.773115 10.3523 1.51201 12.3387 2.8849 13.8566C1.85846 15.0041 1.18495 16.4235 0.945178 17.9443C0.705409 19.4651 0.90957 21.0228 1.53316 22.4304C2.15675 23.8381 3.17328 25.0359 4.46077 25.8802C5.74826 26.7244 7.252 27.1792 8.79156 27.19C10.7652 27.1921 12.668 26.4547 14.1249 25.1233C15.6445 26.4944 17.6319 27.231 19.678 27.1814C21.7242 27.1318 23.6735 26.2998 25.1249 24.8566C26.5644 23.4018 27.3915 21.4506 27.4361 19.4044C27.4808 17.3583 26.7395 15.3729 25.3649 13.8566C26.7395 12.3404 27.4808 10.355 27.4361 8.30882C27.3915 6.26269 26.5644 4.31148 25.1249 2.85663L25.1782 2.8833ZM23.2316 4.74996C24.1588 5.70381 24.6961 6.96975 24.7381 8.29936C24.78 9.62896 24.3235 10.9262 23.4582 11.9366L16.0449 4.5233C17.0641 3.67761 18.3574 3.23384 19.6812 3.27559C21.0049 3.31734 22.2677 3.84173 23.2316 4.74996ZM5.01823 22.9633C4.09099 22.0094 3.55368 20.7435 3.51174 19.4139C3.46981 18.0843 3.92627 16.787 4.79156 15.7766L12.2582 23.2433C11.2277 24.094 9.92012 24.5356 8.58483 24.484C7.24954 24.4324 5.97997 23.891 5.01823 22.9633ZM23.2316 22.9633C22.2192 23.9315 20.8724 24.4719 19.4716 24.4719C18.0707 24.4719 16.7239 23.9315 15.7116 22.9633L5.0449 12.2966C4.05156 11.2974 3.494 9.94562 3.494 8.53663C3.494 7.12764 4.05156 5.7759 5.0449 4.77663C6.04416 3.78329 7.39591 3.22574 8.8049 3.22574C10.2139 3.22574 11.5656 3.78329 12.5649 4.77663L23.2316 15.4433C24.2249 16.4426 24.7825 17.7943 24.7825 19.2033C24.7825 20.6123 24.2249 21.964 23.2316 22.9633ZM16.4849 12.91C16.3599 13.0339 16.2607 13.1814 16.193 13.3439C16.1253 13.5063 16.0905 13.6806 16.0905 13.8566C16.0905 14.0326 16.1253 14.2069 16.193 14.3694C16.2607 14.5319 16.3599 14.6793 16.4849 14.8033C16.7347 15.0516 17.0727 15.191 17.4249 15.191C17.7771 15.191 18.1151 15.0516 18.3649 14.8033C18.4899 14.6793 18.5891 14.5319 18.6568 14.3694C18.7244 14.2069 18.7593 14.0326 18.7593 13.8566C18.7593 13.6806 18.7244 13.5063 18.6568 13.3439C18.5891 13.1814 18.4899 13.0339 18.3649 12.91C18.1151 12.6616 17.7771 12.5222 17.4249 12.5222C17.0727 12.5222 16.7347 12.6616 16.4849 12.91ZM13.1782 9.61663C12.9299 9.86645 12.7905 10.2044 12.7905 10.5566C12.7905 10.9089 12.9299 11.2468 13.1782 11.4966C13.3022 11.6216 13.4496 11.7208 13.6121 11.7885C13.7746 11.8562 13.9489 11.891 14.1249 11.891C14.3009 11.891 14.4752 11.8562 14.6377 11.7885C14.8001 11.7208 14.9476 11.6216 15.0716 11.4966C15.3199 11.2468 15.4593 10.9089 15.4593 10.5566C15.4593 10.2044 15.3199 9.86645 15.0716 9.61663C14.9476 9.49166 14.8001 9.39247 14.6377 9.32478C14.4752 9.25708 14.3009 9.22223 14.1249 9.22223C13.9489 9.22223 13.7746 9.25708 13.6121 9.32478C13.4496 9.39247 13.3022 9.49166 13.1782 9.61663Z" fill="white"/>
</svg>
