<svg width="38" height="48" viewBox="0 0 38 48" fill="none" xmlns="http://www.w3.org/2000/svg">
<path d="M30.3028 10.0651H25.6601V5.4223H30.3028C30.9185 5.4223 31.509 5.17773 31.9443 4.74239C32.3796 4.30704 32.6242 3.71659 32.6242 3.10092C32.6242 2.48525 32.3796 1.8948 31.9443 1.45946C31.509 1.02411 30.9185 0.779541 30.3028 0.779541H11.7318C8.65344 0.779541 5.70118 2.00241 3.52446 4.17912C1.34774 6.35584 0.124878 9.3081 0.124878 12.3864V44.8858C0.124878 45.5014 0.369452 46.0919 0.804795 46.5272C1.24014 46.9626 1.83059 47.2072 2.44626 47.2072C3.06193 47.2072 3.65238 46.9626 4.08772 46.5272C4.52307 46.0919 4.76764 45.5014 4.76764 44.8858V12.3864C4.76764 10.5394 5.50136 8.76808 6.80739 7.46205C8.11342 6.15602 9.88478 5.4223 11.7318 5.4223H21.0173V10.0651H16.3745C14.5275 10.0651 12.7562 10.7988 11.4502 12.1048C10.1441 13.4108 9.4104 15.1822 9.4104 17.0292V28.4736C9.40997 29.6225 9.69378 30.7536 10.2365 31.7662C10.7793 32.7788 11.5641 33.6414 12.5211 34.2771L16.3745 36.8538V37.9216C16.3745 39.153 16.8637 40.3339 17.7344 41.2046C18.6051 42.0753 19.786 42.5644 21.0173 42.5644V44.8858C21.0173 45.5014 21.2619 46.0919 21.6972 46.5272C22.1326 46.9626 22.723 47.2072 23.3387 47.2072C23.9544 47.2072 24.5448 46.9626 24.9802 46.5272C25.4155 46.0919 25.6601 45.5014 25.6601 44.8858V42.5644C26.8914 42.5644 28.0723 42.0753 28.943 41.2046C29.8137 40.3339 30.3028 39.153 30.3028 37.9216V36.8538L34.1563 34.2771C35.1133 33.6414 35.8981 32.7788 36.4409 31.7662C36.9836 30.7536 37.2674 29.6225 37.267 28.4736V17.0292C37.267 15.1822 36.5333 13.4108 35.2272 12.1048C33.9212 10.7988 32.1498 10.0651 30.3028 10.0651ZM27.9815 21.672H32.6242V23.9934H30.3028C29.6872 23.9934 29.0967 24.2379 28.6614 24.6733C28.226 25.1086 27.9815 25.6991 27.9815 26.3147C27.9815 26.9304 28.226 27.5209 28.6614 27.9562C29.0967 28.3915 29.6872 28.6361 30.3028 28.6361H32.6242C32.5994 28.9885 32.4945 29.3306 32.3175 29.6364C32.1405 29.9421 31.8961 30.2034 31.6028 30.4004L26.7279 33.6735C26.4043 33.8811 26.1373 34.1659 25.9509 34.5022C25.7645 34.8385 25.6646 35.2158 25.6601 35.6003V37.9216H21.0173V35.6003C21.0153 35.2179 20.9189 34.842 20.7367 34.5058C20.5545 34.1697 20.292 33.8838 19.9727 33.6735L15.0978 30.4004C14.7785 30.1901 14.516 29.9042 14.3338 29.568C14.1515 29.2319 14.0551 28.856 14.0532 28.4736V17.0292C14.0532 16.4135 14.2977 15.8231 14.7331 15.3877C15.1684 14.9524 15.7589 14.7078 16.3745 14.7078H30.3028C30.9185 14.7078 31.509 14.9524 31.9443 15.3877C32.3796 15.8231 32.6242 16.4135 32.6242 17.0292H27.9815C27.3658 17.0292 26.7753 17.2738 26.34 17.7091C25.9046 18.1445 25.6601 18.7349 25.6601 19.3506C25.6601 19.9663 25.9046 20.5567 26.34 20.9921C26.7753 21.4274 27.3658 21.672 27.9815 21.672Z" fill="#159EEC"/>
</svg>
