<svg width="38" height="34" viewBox="0 0 38 34" fill="none" xmlns="http://www.w3.org/2000/svg">
<path d="M22.4544 15.1307H20.5955V13.289C20.5955 12.8005 20.3997 12.3321 20.051 11.9867C19.7024 11.6413 19.2296 11.4473 18.7366 11.4473C18.2435 11.4473 17.7707 11.6413 17.4221 11.9867C17.0735 12.3321 16.8776 12.8005 16.8776 13.289V15.1307H15.0187C14.5257 15.1307 14.0528 15.3247 13.7042 15.6701C13.3556 16.0155 13.1597 16.4839 13.1597 16.9724C13.1597 17.4608 13.3556 17.9293 13.7042 18.2746C14.0528 18.62 14.5257 18.8141 15.0187 18.8141H16.8776V20.6558C16.8776 21.1442 17.0735 21.6126 17.4221 21.958C17.7707 22.3034 18.2435 22.4974 18.7366 22.4974C19.2296 22.4974 19.7024 22.3034 20.051 21.958C20.3997 21.6126 20.5955 21.1442 20.5955 20.6558V18.8141H22.4544C22.9475 18.8141 23.4203 18.62 23.7689 18.2746C24.1175 17.9293 24.3134 17.4608 24.3134 16.9724C24.3134 16.4839 24.1175 16.0155 23.7689 15.6701C23.4203 15.3247 22.9475 15.1307 22.4544 15.1307ZM33.9055 4.08051C31.9233 2.13697 29.3053 0.959332 26.5237 0.760081C23.7422 0.56083 20.9803 1.35309 18.7366 2.99391C16.3714 1.25099 13.4274 0.460676 10.4976 0.782099C7.56778 1.10352 4.8697 2.51281 2.94669 4.72618C1.02368 6.93954 0.0185775 9.79256 0.133792 12.7107C0.249007 15.6289 1.47598 18.3954 3.56762 20.4532L14.7213 31.5954C15.7669 32.6301 17.1843 33.2113 18.6622 33.2113C20.1401 33.2113 21.5575 32.6301 22.6032 31.5954L33.7568 20.4532C34.8553 19.3899 35.7309 18.122 36.3332 16.7223C36.9355 15.3227 37.2527 13.8189 37.2665 12.2975C37.2803 10.776 36.9905 9.26682 36.4137 7.85668C35.8369 6.44653 34.9845 5.16322 33.9055 4.08051ZM31.2844 17.8195L20.1308 28.8697C19.958 29.0423 19.7524 29.1793 19.5258 29.2728C19.2993 29.3663 19.0563 29.4145 18.8109 29.4145C18.5655 29.4145 18.3225 29.3663 18.096 29.2728C17.8695 29.1793 17.6639 29.0423 17.4911 28.8697L6.33744 17.8195C4.87958 16.3431 4.06323 14.3599 4.06323 12.2945C4.06323 10.2291 4.87958 8.24578 6.33744 6.76938C7.82302 5.31626 9.82662 4.50146 11.9143 4.50146C14.0019 4.50146 16.0055 5.31626 17.4911 6.76938C17.6639 6.942 17.8695 7.07901 18.096 7.17251C18.3225 7.26601 18.5655 7.31415 18.8109 7.31415C19.0563 7.31415 19.2993 7.26601 19.5258 7.17251C19.7524 7.07901 19.958 6.942 20.1308 6.76938C21.6164 5.31626 23.6199 4.50146 25.7076 4.50146C27.7952 4.50146 29.7988 5.31626 31.2844 6.76938C32.7534 8.24742 33.5769 10.2385 33.5769 12.3129C33.5769 14.3872 32.7534 16.3783 31.2844 17.8564V17.8195Z" fill="#159EEC"/>
</svg>
