<svg width="38" height="39" viewBox="0 0 38 39" fill="none" xmlns="http://www.w3.org/2000/svg">
<path d="M31.6957 0.924316H5.69619C4.21859 0.924316 2.8015 1.51129 1.75668 2.55612C0.711854 3.60094 0.124878 5.01803 0.124878 6.49563V32.4951C0.124878 33.9727 0.711854 35.3898 1.75668 36.4346C2.8015 37.4794 4.21859 38.0664 5.69619 38.0664H31.6957C33.1733 38.0664 34.5904 37.4794 35.6352 36.4346C36.68 35.3898 37.267 33.9727 37.267 32.4951V6.49563C37.267 5.01803 36.68 3.60094 35.6352 2.55612C34.5904 1.51129 33.1733 0.924316 31.6957 0.924316ZM33.5528 32.4951C33.5528 32.9876 33.3571 33.46 33.0088 33.8083C32.6606 34.1565 32.1882 34.3522 31.6957 34.3522H5.69619C5.20366 34.3522 4.7313 34.1565 4.38302 33.8083C4.03475 33.46 3.83909 32.9876 3.83909 32.4951V6.49563C3.83909 6.0031 4.03475 5.53073 4.38302 5.18246C4.7313 4.83419 5.20366 4.63853 5.69619 4.63853H31.6957C32.1882 4.63853 32.6606 4.83419 33.0088 5.18246C33.3571 5.53073 33.5528 6.0031 33.5528 6.49563V32.4951ZM27.9815 13.9241H24.2672V10.2098C24.2672 9.71731 24.0716 9.24494 23.7233 8.89667C23.375 8.5484 22.9027 8.35274 22.4101 8.35274H14.9817C14.4892 8.35274 14.0168 8.5484 13.6685 8.89667C13.3203 9.24494 13.1246 9.71731 13.1246 10.2098V13.9241H9.4104C8.91787 13.9241 8.44551 14.1197 8.09723 14.468C7.74896 14.8163 7.5533 15.2886 7.5533 15.7812V23.2096C7.5533 23.7021 7.74896 24.1745 8.09723 24.5227C8.44551 24.871 8.91787 25.0667 9.4104 25.0667H13.1246V28.7809C13.1246 29.2734 13.3203 29.7458 13.6685 30.0941C14.0168 30.4423 14.4892 30.638 14.9817 30.638H22.4101C22.9027 30.638 23.375 30.4423 23.7233 30.0941C24.0716 29.7458 24.2672 29.2734 24.2672 28.7809V25.0667H27.9815C28.474 25.0667 28.9464 24.871 29.2946 24.5227C29.6429 24.1745 29.8386 23.7021 29.8386 23.2096V15.7812C29.8386 15.2886 29.6429 14.8163 29.2946 14.468C28.9464 14.1197 28.474 13.9241 27.9815 13.9241ZM26.1243 21.3525H22.4101C21.9176 21.3525 21.4452 21.5481 21.097 21.8964C20.7487 22.2447 20.553 22.717 20.553 23.2096V26.9238H16.8388V23.2096C16.8388 22.717 16.6432 22.2447 16.2949 21.8964C15.9466 21.5481 15.4743 21.3525 14.9817 21.3525H11.2675V17.6383H14.9817C15.4743 17.6383 15.9466 17.4426 16.2949 17.0943C16.6432 16.7461 16.8388 16.2737 16.8388 15.7812V12.0669H20.553V15.7812C20.553 16.2737 20.7487 16.7461 21.097 17.0943C21.4452 17.4426 21.9176 17.6383 22.4101 17.6383H26.1243V21.3525Z" fill="#159EEC"/>
</svg>
